<svg xmlns="http://www.w3.org/2000/svg" viewBox="0 0 114 44" shape-rendering="crispEdges"><title>KEON title mark</title><g fill="#EEEAE1"><rect x="4" y="2" width="9" height="1"/><rect x="19" y="2" width="9" height="1"/><rect x="31" y="2" width="19" height="1"/><rect x="58" y="2" width="15" height="1"/><rect x="80" y="2" width="9" height="1"/><rect x="98" y="2" width="8" height="1"/><rect x="4" y="3" width="9" height="1"/><rect x="19" y="3" width="8" height="1"/><rect x="31" y="3" width="19" height="1"/><rect x="57" y="3" width="17" height="1"/><rect x="80" y="3" width="10" height="1"/><rect x="98" y="3" width="8" height="1"/><rect x="4" y="4" width="9" height="1"/><rect x="18" y="4" width="9" height="1"/><rect x="31" y="4" width="19" height="1"/><rect x="55" y="4" width="21" height="1"/><rect x="80" y="4" width="10" height="1"/><rect x="98" y="4" width="8" height="1"/><rect x="4" y="5" width="9" height="1"/><rect x="18" y="5" width="9" height="1"/><rect x="31" y="5" width="19" height="1"/><rect x="55" y="5" width="21" height="1"/><rect x="80" y="5" width="10" height="1"/><rect x="98" y="5" width="8" height="1"/><rect x="4" y="6" width="9" height="1"/><rect x="17" y="6" width="9" height="1"/><rect x="31" y="6" width="19" height="1"/><rect x="54" y="6" width="23" height="1"/><rect x="80" y="6" width="11" height="1"/><rect x="98" y="6" width="8" height="1"/><rect x="4" y="7" width="9" height="1"/><rect x="17" y="7" width="9" height="1"/><rect x="31" y="7" width="19" height="1"/><rect x="54" y="7" width="23" height="1"/><rect x="80" y="7" width="11" height="1"/><rect x="98" y="7" width="8" height="1"/><rect x="4" y="8" width="9" height="1"/><rect x="17" y="8" width="8" height="1"/><rect x="31" y="8" width="19" height="1"/><rect x="54" y="8" width="23" height="1"/><rect x="80" y="8" width="12" height="1"/><rect x="98" y="8" width="8" height="1"/><rect x="4" y="9" width="9" height="1"/><rect x="16" y="9" width="9" height="1"/><rect x="31" y="9" width="9" height="1"/><rect x="53" y="9" width="10" height="1"/><rect x="68" y="9" width="10" height="1"/><rect x="80" y="9" width="12" height="1"/><rect x="98" y="9" width="8" height="1"/><rect x="4" y="10" width="9" height="1"/><rect x="16" y="10" width="9" height="1"/><rect x="31" y="10" width="9" height="1"/><rect x="53" y="10" width="9" height="1"/><rect x="69" y="10" width="9" height="1"/><rect x="80" y="10" width="12" height="1"/><rect x="98" y="10" width="8" height="1"/><rect x="4" y="11" width="9" height="1"/><rect x="15" y="11" width="9" height="1"/><rect x="31" y="11" width="9" height="1"/><rect x="53" y="11" width="9" height="1"/><rect x="69" y="11" width="9" height="1"/><rect x="80" y="11" width="13" height="1"/><rect x="98" y="11" width="8" height="1"/><rect x="4" y="12" width="9" height="1"/><rect x="15" y="12" width="9" height="1"/><rect x="31" y="12" width="9" height="1"/><rect x="53" y="12" width="9" height="1"/><rect x="69" y="12" width="9" height="1"/><rect x="80" y="12" width="13" height="1"/><rect x="98" y="12" width="8" height="1"/><rect x="4" y="13" width="9" height="1"/><rect x="14" y="13" width="10" height="1"/><rect x="31" y="13" width="9" height="1"/><rect x="53" y="13" width="9" height="1"/><rect x="69" y="13" width="9" height="1"/><rect x="80" y="13" width="14" height="1"/><rect x="98" y="13" width="8" height="1"/><rect x="4" y="14" width="9" height="1"/><rect x="14" y="14" width="9" height="1"/><rect x="31" y="14" width="9" height="1"/><rect x="53" y="14" width="9" height="1"/><rect x="69" y="14" width="9" height="1"/><rect x="80" y="14" width="14" height="1"/><rect x="98" y="14" width="8" height="1"/><rect x="4" y="15" width="9" height="1"/><rect x="14" y="15" width="9" height="1"/><rect x="31" y="15" width="9" height="1"/><rect x="53" y="15" width="9" height="1"/><rect x="69" y="15" width="9" height="1"/><rect x="80" y="15" width="15" height="1"/><rect x="98" y="15" width="8" height="1"/><rect x="4" y="16" width="18" height="1"/><rect x="31" y="16" width="9" height="1"/><rect x="53" y="16" width="9" height="1"/><rect x="69" y="16" width="9" height="1"/><rect x="80" y="16" width="15" height="1"/><rect x="98" y="16" width="8" height="1"/><rect x="4" y="17" width="18" height="1"/><rect x="31" y="17" width="9" height="1"/><rect x="53" y="17" width="9" height="1"/><rect x="69" y="17" width="9" height="1"/><rect x="80" y="17" width="15" height="1"/><rect x="98" y="17" width="8" height="1"/><rect x="4" y="18" width="18" height="1"/><rect x="31" y="18" width="9" height="1"/><rect x="53" y="18" width="9" height="1"/><rect x="69" y="18" width="9" height="1"/><rect x="80" y="18" width="16" height="1"/><rect x="98" y="18" width="8" height="1"/><rect x="4" y="19" width="17" height="1"/><rect x="31" y="19" width="17" height="1"/><rect x="53" y="19" width="9" height="1"/><rect x="69" y="19" width="9" height="1"/><rect x="80" y="19" width="16" height="1"/><rect x="98" y="19" width="8" height="1"/><rect x="4" y="20" width="17" height="1"/><rect x="31" y="20" width="17" height="1"/><rect x="53" y="20" width="9" height="1"/><rect x="69" y="20" width="9" height="1"/><rect x="80" y="20" width="17" height="1"/><rect x="98" y="20" width="8" height="1"/><rect x="4" y="21" width="19" height="1"/><rect x="31" y="21" width="17" height="1"/><rect x="53" y="21" width="9" height="1"/><rect x="69" y="21" width="9" height="1"/><rect x="80" y="21" width="8" height="1"/><rect x="89" y="21" width="8" height="1"/><rect x="98" y="21" width="8" height="1"/><rect x="4" y="22" width="19" height="1"/><rect x="31" y="22" width="17" height="1"/><rect x="53" y="22" width="9" height="1"/><rect x="69" y="22" width="9" height="1"/><rect x="80" y="22" width="8" height="1"/><rect x="89" y="22" width="8" height="1"/><rect x="98" y="22" width="8" height="1"/><rect x="4" y="23" width="19" height="1"/><rect x="31" y="23" width="17" height="1"/><rect x="53" y="23" width="9" height="1"/><rect x="69" y="23" width="9" height="1"/><rect x="80" y="23" width="8" height="1"/><rect x="89" y="23" width="17" height="1"/><rect x="4" y="24" width="20" height="1"/><rect x="31" y="24" width="17" height="1"/><rect x="53" y="24" width="9" height="1"/><rect x="69" y="24" width="9" height="1"/><rect x="80" y="24" width="8" height="1"/><rect x="90" y="24" width="16" height="1"/><rect x="4" y="25" width="20" height="1"/><rect x="31" y="25" width="9" height="1"/><rect x="53" y="25" width="9" height="1"/><rect x="69" y="25" width="9" height="1"/><rect x="80" y="25" width="8" height="1"/><rect x="90" y="25" width="16" height="1"/><rect x="4" y="27" width="9" height="1"/><rect x="16" y="27" width="8" height="1"/><rect x="31" y="27" width="9" height="1"/><rect x="53" y="27" width="9" height="1"/><rect x="69" y="27" width="9" height="1"/><rect x="80" y="27" width="8" height="1"/><rect x="91" y="27" width="15" height="1"/><rect x="4" y="28" width="9" height="1"/><rect x="16" y="28" width="9" height="1"/><rect x="31" y="28" width="9" height="1"/><rect x="53" y="28" width="9" height="1"/><rect x="69" y="28" width="9" height="1"/><rect x="80" y="28" width="8" height="1"/><rect x="91" y="28" width="15" height="1"/><rect x="4" y="29" width="9" height="1"/><rect x="17" y="29" width="8" height="1"/><rect x="31" y="29" width="9" height="1"/><rect x="53" y="29" width="9" height="1"/><rect x="69" y="29" width="9" height="1"/><rect x="80" y="29" width="8" height="1"/><rect x="92" y="29" width="14" height="1"/><rect x="4" y="30" width="9" height="1"/><rect x="17" y="30" width="8" height="1"/><rect x="31" y="30" width="9" height="1"/><rect x="53" y="30" width="9" height="1"/><rect x="69" y="30" width="9" height="1"/><rect x="80" y="30" width="8" height="1"/><rect x="92" y="30" width="14" height="1"/><rect x="4" y="31" width="9" height="1"/><rect x="17" y="31" width="8" height="1"/><rect x="31" y="31" width="9" height="1"/><rect x="53" y="31" width="9" height="1"/><rect x="69" y="31" width="9" height="1"/><rect x="80" y="31" width="8" height="1"/><rect x="93" y="31" width="13" height="1"/><rect x="4" y="32" width="9" height="1"/><rect x="17" y="32" width="9" height="1"/><rect x="31" y="32" width="9" height="1"/><rect x="53" y="32" width="9" height="1"/><rect x="69" y="32" width="9" height="1"/><rect x="80" y="32" width="8" height="1"/><rect x="93" y="32" width="13" height="1"/><rect x="4" y="33" width="9" height="1"/><rect x="18" y="33" width="8" height="1"/><rect x="31" y="33" width="9" height="1"/><rect x="53" y="33" width="9" height="1"/><rect x="69" y="33" width="9" height="1"/><rect x="80" y="33" width="8" height="1"/><rect x="94" y="33" width="12" height="1"/><rect x="4" y="34" width="9" height="1"/><rect x="18" y="34" width="8" height="1"/><rect x="31" y="34" width="9" height="1"/><rect x="53" y="34" width="10" height="1"/><rect x="68" y="34" width="10" height="1"/><rect x="80" y="34" width="8" height="1"/><rect x="94" y="34" width="12" height="1"/><rect x="4" y="35" width="9" height="1"/><rect x="18" y="35" width="9" height="1"/><rect x="31" y="35" width="20" height="1"/><rect x="54" y="35" width="23" height="1"/><rect x="80" y="35" width="8" height="1"/><rect x="94" y="35" width="12" height="1"/><rect x="4" y="36" width="9" height="1"/><rect x="18" y="36" width="9" height="1"/><rect x="31" y="36" width="20" height="1"/><rect x="54" y="36" width="23" height="1"/><rect x="80" y="36" width="8" height="1"/><rect x="95" y="36" width="11" height="1"/><rect x="4" y="37" width="9" height="1"/><rect x="19" y="37" width="8" height="1"/><rect x="31" y="37" width="20" height="1"/><rect x="54" y="37" width="23" height="1"/><rect x="80" y="37" width="8" height="1"/><rect x="95" y="37" width="11" height="1"/><rect x="4" y="38" width="9" height="1"/><rect x="19" y="38" width="8" height="1"/><rect x="31" y="38" width="20" height="1"/><rect x="55" y="38" width="21" height="1"/><rect x="80" y="38" width="8" height="1"/><rect x="96" y="38" width="10" height="1"/><rect x="4" y="39" width="9" height="1"/><rect x="19" y="39" width="9" height="1"/><rect x="31" y="39" width="20" height="1"/><rect x="55" y="39" width="21" height="1"/><rect x="80" y="39" width="8" height="1"/><rect x="96" y="39" width="10" height="1"/><rect x="4" y="40" width="9" height="1"/><rect x="19" y="40" width="9" height="1"/><rect x="31" y="40" width="20" height="1"/><rect x="57" y="40" width="17" height="1"/><rect x="80" y="40" width="8" height="1"/><rect x="96" y="40" width="10" height="1"/><rect x="4" y="41" width="9" height="1"/><rect x="19" y="41" width="9" height="1"/><rect x="31" y="41" width="20" height="1"/><rect x="58" y="41" width="15" height="1"/><rect x="80" y="41" width="8" height="1"/><rect x="97" y="41" width="9" height="1"/></g><rect x="108" y="2" width="2" height="2" fill="#D7331F"/></svg>